<?xml version="1.0" encoding="UTF-8"?>
<svg width="64" height="64" version="1.1" viewBox="0 0 16.933 16.933" xml:space="preserve" xmlns="http://www.w3.org/2000/svg"><path d="m13.388 1.905v5.5774l-4.9213 3.2808-4.9212-3.2808v-5.5774a1.6404 1.6404 0 0 1 1.6404-1.6404h6.5617a1.6404 1.6404 0 0 1 1.6404 1.6404z" fill="#cf354f" stroke-width=".82021" data-name="secondary"/><path id="primary" d="m3.5455 3.9553-2.9528 2.2149a0.82021 0.82021 0 0 0-0.32815 0.65629v8.2677a1.6404 1.6404 0 0 0 1.6402 1.5746h13.124a1.6404 1.6404 0 0 0 1.6402-1.5746v-8.2677a0.82021 0.82021 0 0 0-0.32814-0.65629l-2.9528-2.2149v2.0722l1.0418 0.79892-5.9629 3.9367-5.9629-3.9367 1.0418-0.79892v-2.0722z" fill="#ececec" stroke-width=".82021"/><path d="m2.5037 6.8265 1.0418-0.79892-1.035e-4 1.4549z" fill="#999" stroke-width=".5293"/><path d="m13.388 6.0275 1.0418 0.79892-1.0417 0.65596z" fill="#999" stroke-width=".5293"/></svg>
